<svg width="51" height="47" viewBox="0 0 51 47" fill="none" xmlns="http://www.w3.org/2000/svg">
<path d="M19.4383 33.3339L40.8606 40.9965C41.2205 41.1259 41.6048 41.1732 41.9853 41.1349C42.3658 41.0967 42.733 40.9739 43.06 40.7755C43.387 40.5771 43.6655 40.3082 43.8752 39.9883C44.0849 39.6685 44.2204 39.3058 44.2719 38.9269L48.6423 5.89154C48.9083 3.88021 46.8246 2.37987 44.9859 3.25487L3.45493 23.0789C1.40159 24.0589 1.55559 27.0222 3.70226 27.7852L9.39559 29.8105L12.4989 30.9002M27.6656 36.2739L23.0223 44.0345C21.5056 45.9199 18.4513 44.8535 18.4513 42.4409V36.2272C18.4513 35.0546 18.8928 33.9251 19.6879 33.0632L28.7203 23.2632" stroke="black" stroke-width="4" stroke-linecap="round" stroke-linejoin="round"/>
</svg>
